<svg xmlns="http://www.w3.org/2000/svg" viewBox="0 0 64 64"><path d="M60,2H4A2,2,0,0,0,2,4V56a2,2,0,0,0,2,2H6v2a2,2,0,0,0,2,2H56a2,2,0,0,0,2-2V58h2a2,2,0,0,0,2-2V4A2,2,0,0,0,60,2ZM56,60H8V58H56Zm4-4H4V12H60ZM4,10V4H60v6Z"/><path d="M9 54H55a3 3 0 0 0 3-3V17a3 3 0 0 0-3-3H9a3 3 0 0 0-3 3V51A3 3 0 0 0 9 54zm3-16H35a2 2 0 0 1-2 2H14A2 2 0 0 1 12 38zm0 8H35a2 2 0 0 1-2 2H14A2 2 0 0 1 12 46zm0-4H35a2 2 0 0 1-2 2H14A2 2 0 0 1 12 42zm2 10a2 2 0 0 1-2-2H35a2 2 0 0 1-2 2zM41 40V38H52v2a4 4 0 0 1-4 4H45A4 4 0 0 1 41 40zm4 12a4 4 0 0 1-4-4V46H52v2a4 4 0 0 1-4 4zM8 17a1 1 0 0 1 1-1H55a1 1 0 0 1 1 1V32H51V27a4 4 0 0 0-3-3.86V19h1a1 1 0 0 0 0-2H45a1 1 0 0 0 0 2h1v4.14A4 4 0 0 0 43 27v5H41V27a4 4 0 0 0-3-3.86V19h1a1 1 0 0 0 0-2H35a1 1 0 0 0 0 2h1v4.14A4 4 0 0 0 33 27v5H31V27a4 4 0 0 0-3-3.86V19h1a1 1 0 0 0 0-2H25a1 1 0 0 0 0 2h1v4.14A4 4 0 0 0 23 27v5H21V27a4 4 0 0 0-3-3.86V19h1a1 1 0 0 0 0-2H15a1 1 0 0 0 0 2h1v4.14A4 4 0 0 0 13 27v5H8zm39 8a2 2 0 0 1 2 2v5H45V27A2 2 0 0 1 47 25zM37 25a2 2 0 0 1 2 2v5H35V27A2 2 0 0 1 37 25zM27 25a2 2 0 0 1 2 2v5H25V27A2 2 0 0 1 27 25zM17 25a2 2 0 0 1 2 2v5H15V27A2 2 0 0 1 17 25zm-4 9H56V51a1 1 0 0 1-1 1H52.46A6 6 0 0 0 54 48V45.5A1.5 1.5 0 0 0 52.5 44h0A6 6 0 0 0 54 40V37.5A1.5 1.5 0 0 0 52.5 36h-12A1.5 1.5 0 0 0 39 37.5V40a6 6 0 0 0 1.54 4h0A1.5 1.5 0 0 0 39 45.5V48a6 6 0 0 0 1.54 4h-4.1A4 4 0 0 0 37 50v-.9a1.09 1.09 0 0 0-.62-1A4 4 0 0 0 37 46v-.9a1.09 1.09 0 0 0-.62-1A4 4 0 0 0 37 42v-.9a1.09 1.09 0 0 0-.62-1A4 4 0 0 0 37 38v-.9A1.1 1.1 0 0 0 35.9 36H11.1A1.1 1.1 0 0 0 10 37.1V38a4 4 0 0 0 .62 2.12 1.09 1.09 0 0 0-.62 1V42a4 4 0 0 0 .62 2.12 1.09 1.09 0 0 0-.62 1V46a4 4 0 0 0 .62 2.12 1.09 1.09 0 0 0-.62 1V50a4 4 0 0 0 .56 2H9a1 1 0 0 1-1-1V34zM57.15 6H57a1 1 0 0 0 0 2h.13a1 1 0 0 0 0-2zM53.15 6H53a1 1 0 0 0 0 2h.13a1 1 0 0 0 0-2zM49.15 6H49a1 1 0 0 0 0 2h.13a1 1 0 0 0 0-2zM45 6H19a1 1 0 0 0 0 2H45a1 1 0 0 0 0-2zM15.15 6H15a1 1 0 0 0 0 2h.13a1 1 0 0 0 0-2zM11.15 6H11a1 1 0 0 0 0 2h.13a1 1 0 0 0 0-2zM7.15 6H7A1 1 0 0 0 7 8h.13a1 1 0 1 0 0-2z"/></svg>