<svg xmlns="http://www.w3.org/2000/svg" enable-background="new 0 0 64 64" viewBox="0 0 64 64"><path d="M45.4,15.12H18.6c-0.79,0-1.43-0.64-1.43-1.43V1.43C17.17,0.64,17.81,0,18.6,0h26.8c0.79,0,1.43,0.64,1.43,1.43v12.26C46.83,14.48,46.19,15.12,45.4,15.12z M20.03,12.26h23.94V2.87H20.03V12.26z"/><path d="M59.78 27.38H4.22c-.6 0-1.14-.37-1.34-.94-.21-.56-.04-1.2.42-1.59L17.67 12.6c.26-.22.59-.34.93-.34h26.8c.34 0 .67.12.93.34l14.38 12.26c.46.39.62 1.02.42 1.59C60.92 27.01 60.38 27.38 59.78 27.38zM8.11 24.51h47.79l-11.02-9.39H19.13L8.11 24.51zM49.65 64h-35.3c-.79 0-1.43-.64-1.43-1.43s.64-1.43 1.43-1.43h35.3c.79 0 1.43.64 1.43 1.43S50.44 64 49.65 64zM39.15 54.73c-.79 0-1.43-.64-1.43-1.43 0-2.58 2.44-3.71 4.39-4.63 1.6-.75 2.74-1.33 2.74-2.03s-1.14-1.28-2.74-2.03c-1.96-.91-4.39-2.05-4.39-4.63 0-2.58 2.44-3.71 4.39-4.62 1.35-.63 2.74-1.28 2.74-2.03 0-.79.64-1.43 1.43-1.43s1.43.64 1.43 1.43c0 2.58-2.44 3.71-4.39 4.62-1.35.63-2.74 1.28-2.74 2.03 0 .7 1.14 1.28 2.74 2.03 1.96.91 4.39 2.05 4.39 4.63 0 2.58-2.44 3.71-4.39 4.63-1.6.75-2.74 1.33-2.74 2.03C40.59 54.09 39.94 54.73 39.15 54.73zM28.43 54.73c-.79 0-1.43-.64-1.43-1.43 0-2.58 2.44-3.71 4.39-4.63 1.6-.75 2.74-1.33 2.74-2.03s-1.14-1.28-2.74-2.03C29.44 43.7 27 42.56 27 39.98c0-2.58 2.44-3.71 4.39-4.62 1.35-.63 2.74-1.28 2.74-2.03 0-.79.64-1.43 1.43-1.43S37 32.54 37 33.33c0 2.58-2.44 3.71-4.39 4.62-1.35.63-2.74 1.28-2.74 2.03 0 .7 1.14 1.28 2.74 2.03 1.96.91 4.39 2.05 4.39 4.63 0 2.58-2.44 3.71-4.39 4.63-1.6.75-2.74 1.33-2.74 2.03C29.87 54.09 29.23 54.73 28.43 54.73zM17.72 54.73c-.79 0-1.43-.64-1.43-1.43 0-2.58 2.44-3.71 4.39-4.63 1.6-.75 2.74-1.33 2.74-2.03s-1.14-1.28-2.74-2.03c-1.96-.91-4.39-2.05-4.39-4.63 0-2.58 2.44-3.71 4.39-4.62 1.35-.63 2.74-1.28 2.74-2.03 0-.79.64-1.43 1.43-1.43.79 0 1.43.64 1.43 1.43 0 2.58-2.44 3.71-4.39 4.62-1.35.63-2.74 1.28-2.74 2.03 0 .7 1.14 1.28 2.74 2.03 1.96.91 4.39 2.05 4.39 4.63 0 2.58-2.44 3.71-4.39 4.63-1.6.75-2.74 1.33-2.74 2.03C19.15 54.09 18.51 54.73 17.72 54.73z"/></svg>