<svg xmlns="http://www.w3.org/2000/svg" width="64" height="64" enable-background="new 0 0 64 64" viewBox="0 0 64 64"><path d="M50.563,2.5c0-1.381-1.119-2.5-2.5-2.5H15.938c-1.381,0-2.5,1.119-2.5,2.5v20.578c0,0.591,0.206,1.134,0.549,1.562
		c-0.343,0.428-0.549,0.97-0.549,1.561V61.5c0,1.381,1.119,2.5,2.5,2.5h32.125c1.381,0,2.5-1.119,2.5-2.5V26.201
		c0-0.591-0.207-1.134-0.549-1.562c0.342-0.428,0.549-0.971,0.549-1.562V2.5z M48.688,61.5c0,0.345-0.28,0.625-0.625,0.625H15.938
		c-0.345,0-0.625-0.28-0.625-0.625V26.201c0-0.345,0.28-0.625,0.625-0.625h32.125c0.345,0,0.625,0.28,0.625,0.625V61.5z
		 M48.688,23.078c0,0.344-0.28,0.625-0.625,0.625H15.938c-0.345,0-0.625-0.281-0.625-0.625V2.5c0-0.345,0.28-0.625,0.625-0.625
		h32.125c0.345,0,0.625,0.28,0.625,0.625V23.078z M19.854,6.048v12.994c0,0.54-0.438,0.979-0.979,0.979
		c-0.541,0-0.979-0.438-0.979-0.979V6.048c0-0.541,0.438-0.979,0.979-0.979C19.416,5.068,19.854,5.507,19.854,6.048z M19.854,29.548
		v12.993c0,0.541-0.438,0.979-0.979,0.979c-0.541,0-0.979-0.438-0.979-0.979V29.548c0-0.541,0.438-0.979,0.979-0.979
		C19.416,28.568,19.854,29.007,19.854,29.548z"/></svg>